<svg id="Layer_1" data-name="Layer 1" xmlns="http://www.w3.org/2000/svg" xmlns:xlink="http://www.w3.org/1999/xlink" viewBox="0 0 1527.38 670.64"><defs><style>.cls-1,.cls-2{stroke:#000;stroke-miterlimit:10;}.cls-1{stroke-width:5px;fill:url(#linear-gradient);}.cls-2{fill:#c00;stroke-width:2px;}</style><linearGradient id="linear-gradient" x1="540.74" y1="552.12" x2="1155.02" y2="552.12" gradientTransform="matrix(1, 0, 0, -1, 0, 808)" gradientUnits="userSpaceOnUse"><stop offset="0" stop-color="#b85e42"/><stop offset="0.5" stop-color="#9f2214"/><stop offset="1" stop-color="#700101"/></linearGradient></defs><title>alphaanime</title><g id="Layer_2" data-name="Layer 2"><g id="Layer_3" data-name="Layer 3"><path class="cls-1" d="M932.66,462c1.58,1.45,3.2,2.91,4.81,4.36a.69.69,0,0,1-.72,1.15,81.89,81.89,0,0,1-16-9.17c-4.4-3.2-9.4-4.9-14.2-7.2-2.6-1.2-2.8-.1-2.7,2a24.67,24.67,0,0,0,2.22,8.17.68.68,0,0,1-.9.9c-5-2.34-11.06-8.31-15.12-15.17a38.11,38.11,0,0,0-7.1-8.9c-3.5-3.1-4.7-1.4-5.4,2.1-.91,4.64-.66,9.37-.23,14.41a.69.69,0,0,1-1.09.63c-13.63-10.17-14.48-27.3-22.32-41.57a.69.69,0,0,0-1.23,0c-3.24,7.19-3.43,13.75-3.5,20.38a.7.7,0,0,1-1.28.37c-4.76-7.47-9.26-15.08-9.35-24.46a46.08,46.08,0,0,0-6.76-23.68.7.7,0,0,0-1.07-.16c-5.23,4.86-6.35,11.13-7.18,18a.69.69,0,0,1-1.24.33c-5.55-7.16-7.19-15-7.85-23.21a33.91,33.91,0,0,1,.9-11.9c1.15-3.84.37-7.23-1.12-10.59a.71.71,0,0,0-.7-.42c-1.27.14-1.67,1.41-2.38,2.21-19.2,19.6-39.6,37.8-63.4,51.6-40.6,23.5-84.2,32.2-130.3,20.9-32.3-7.9-56.8-26.6-69.5-58.3-9.6-24-8.7-48.6-2.3-73.1,10.8-40.5,34-73.1,63.7-101.7,27.3-26.3,58.5-45.4,96-53.3,17-3.6,34.3-5.3,51.6-2.1,24.2,4.5,42.9,17.4,56.7,37.6,2.8,4,4.5,5,9,2,11.23-7.42,22.93-14.17,35-21.46a.7.7,0,0,0,.06-1.16c-5.79-4.11-12.38-4.55-19.54-4.82a.69.69,0,0,1-.47-1.17c7-7.09,14.89-10.92,23.64-13.39s17.51-3.22,27.52-2.95a.7.7,0,0,0,.51-1.19c-7.65-7.69-16.72-8.6-26.62-9.23a.7.7,0,0,1-.33-1.28c7.45-4.82,15-5.89,23-5a61.83,61.83,0,0,1,21.9,6.6c4.6,2.5,7.1-1.2,10.3-2.7,1.4-.7,0-2.1-.6-3-2.6-4-6.7-5.8-11.1-7.2A54.87,54.87,0,0,0,890.67,114a.7.7,0,0,1-.43-1.23c3.28-2.68,7-3.71,10.46-4.59,12.8-2.9,25.1-1.7,36.7,5,2.1,1.2,4.9,3.6,6.7,1.3,2-2.6-.3-5.2-2.6-7.1-3.62-3.08-7.24-6.15-10.64-9.6a.7.7,0,0,1,.47-1.18c23.76-1.1,45.45,7.51,68.63,14.46a.69.69,0,0,0,.7-1.14c-4-4.3-7.59-8.11-11.09-11.83a.69.69,0,0,1,.76-1.11c16.29,6.45,33.35,9.68,50.83,13.1a.7.7,0,0,0,.82-.83c-1.91-8.41-6-15-11.18-21.07-6.9-8.1-15.4-14.7-22.8-22.4-4.2-4.3-7.8-9-9.7-14.9a12.22,12.22,0,0,1-.82-4.29.7.7,0,0,1,1.21-.42c8.14,9,16,17.76,24,26.41,12.2,13.2,24.1,26.7,38.1,38.2.4.3.7,1.2,1.3.7a.83.83,0,0,0-.33-1.3.76.76,0,0,1-.38-.37c-3.12-7.37-8.65-13.11-13.29-19.43-7.2-9.6-14.6-19-18.7-30.5a36.12,36.12,0,0,1-2.09-15,.69.69,0,0,1,1.36-.1c6.9,28.46,26.15,48.48,44.13,69.23,3.9,4.5,7.9,9,12,13.4,5.3,5.6,9.3,11.6,11.1,19.6,1.6,7,6.6,12.9,12.1,17.9a37.77,37.77,0,0,1,9.5,13.1c4.6,10.6,14,16.6,23.4,22.5,3.4,2.1,7.1,3.7,10.5,5.7,3.2,1.8,4.2,4.5,3.3,8-.4,1.5-1.1,2.4-2.8,2.2-8.6-1.2-14.9,3.4-21.3,8.1a42.85,42.85,0,0,1-6.8,4.2,10.73,10.73,0,0,1-6.93,1.25.7.7,0,0,1-.16-1.31c5.28-2.41,10-5.12,13.8-9.7a.7.7,0,0,0-.53-1.14h-16.41a.7.7,0,0,1-.46-1.22c3.82-3.29,8-4.94,11.59-7.75a.69.69,0,0,0-.22-1.21l-25.59-8a.69.69,0,0,1,0-1.33l6.27-1.51c3.5-.7,3.9-2.6,2.3-5.4a15.06,15.06,0,0,0-6.3-6.2c-7-3.7-14.3-6.3-22.4-5.8-4.3.3-8.7.3-13,.2s-6,2.1-6.5,5.9c-1.2,9.1,2.8,15.7,9.9,20.9a41.65,41.65,0,0,0,19.67,7.68.69.69,0,0,1,.23,1.29c-2.15,1.07-4.3,1.24-6.2,2s-4.1,1-4.4,3.5c-.3,2.7,2.1,3.1,3.7,4,3.75,2.19,8.24,2.72,12.35,5a.7.7,0,0,1,0,1.25,29.53,29.53,0,0,1-17,2.45c-7.29-1.23-14.67-3-22.39-2.53a.69.69,0,0,1-.37-1.29l3-1.68c7.1-4.2,7.8-13.2.9-17.9-10.4-7.1-20.6-14.7-33-18.4-2.07-.63-4.3-1.34-5.82-3.36a.7.7,0,0,1,.29-1.06c3.17-1.34,6.31-2.7,10-4.24a.69.69,0,0,0,.07-1.23c-7.95-4.66-14.54-10.19-21.3-15.71-2.7-2.2-6.7-1.6-10.2-1.8-28.6-1.6-54.1,6.7-77.2,23.4-28.3,20.5-51.6,45.2-65.5,77.6-9.9,23.1-11.1,46.2-.5,69.6,15.4,34,33.7,66.2,60,93.1,12.9,13.3,27.3,24.7,46,28.5,12.2,2.5,24.7,3.7,37,5.6,1,.16,2.06.32,3.1.54a.69.69,0,0,1,0,1.35c-18.09,3.76-36.1,3.13-54.2-.39-4.53-.89-9-1.87-13.48-2.76a.75.75,0,0,1-.37-.2,1.31,1.31,0,0,0-1.85-.24c.29.48.66.86,1,1.33A.64.64,0,0,0,932.66,462Zm94-316.36c-.3,0-.5-.1-.8-.1a.35.35,0,0,0-.2.1,1.7,1.7,0,0,1,1,0c1.6,4.5,11.6,9.7,17.1,8.9,4.7-.6,10.1-5.5,10-9.8-.1-5.1-4.5-6-8.2-7.4a19.44,19.44,0,0,0-4.9-1.1c-6.9-.52-14-.14-20.76-2.15a.69.69,0,0,0-.64,1.19c3.59,3.08,7.4,5.58,12.3,6.46,1.4.2,3.9-.7,3.8,1.9-.1,2.3-2.3,2.6-4,3S1028.2,146.3,1026.7,145.6ZM605.6,345.5a82.05,82.05,0,0,0,4.4,27.4c5.1,14.5,14.2,25.2,29.8,28.7,13.4,3,26.1.2,38.4-5.3,16.1-7.2,30-17.8,43-29.7,26.3-24,46.9-52.5,66.2-82.2,1.4-2.1,1.1-4.1.7-6.2a401,401,0,0,0-12.6-50.8c-4.5-13.6-9.7-27-19.1-38.1-9.7-11.5-22-16.6-37.2-14.8-14,1.7-26,7.8-36.8,16.6-17,13.9-29.9,31.2-41.3,49.7C622.1,271.6,607.5,303.9,605.6,345.5Zm478.74-196a.69.69,0,0,0-1.12-.13c-3.37,3.64-3.63,7.09-.72,10.1,2.69,2.87,5.81,3.34,9.52,1.4a.7.7,0,0,0,.14-1.14A35.88,35.88,0,0,1,1084.34,149.53Z" transform="translate(-68.63 -41.74)"/></g></g><path class="cls-2" d="M212.63,708.38c1.33,0,2,.4,2,1.2a1.3,1.3,0,0,1-1.1,1.3,10.52,10.52,0,0,1-2.7.29h-11.1q-4.11,0-9-.09t-9.9-.3l-4.2-.3c-.94-.07-1.4-.44-1.4-1.1a1.45,1.45,0,0,1,1.2-1.4,2.39,2.39,0,0,0,1.6-1.5,4.29,4.29,0,0,0-.4-3.5L160,656.17a1.93,1.93,0,0,0-1.8-1.19h-34.4c.4-1.07.76-2.2,1.1-3.4s.63-2.34.9-3.41l10.2-29q1.2,3.62,2.2,6.61,1,2.6,1.7,4.8c.46,1.46.83,2.26,1.1,2.4s-.17.19-.9.19h-2.5c-1.07,0-2.34-.06-3.8-.19l-5.2,15.19h27.2c.8,0,1.06-.46.8-1.39l-18.2-51.4q-1.41-4-2.8,0l-16.8,51.4q-1.41,3.79-2.4,6.89c-.67,2.07-1.44,4.41-2.3,7s-1.77,5.24-2.7,7.91q-3.41,9.6-7.4,21.59a62.89,62.89,0,0,0-1.9,6.91,28.48,28.48,0,0,0-.7,5.9,4.35,4.35,0,0,0,2.4,4.1,10.08,10.08,0,0,0,4.8,1.3h1.8c1.33,0,2,.4,2,1.2,0,1.06-.94,1.59-2.8,1.59-1.2,0-2.54,0-4-.09l-4.4-.2-4-.21c-1.2-.06-2.07-.09-2.6-.09s-1.5,0-2.9.09-3.1.14-5.1.21l-6.5.2q-3.51.09-6.9.09-3.6,0-3.6-1.59c0-.8.53-1.2,1.6-1.2.66,0,1.56,0,2.7-.1s2.1-.17,2.9-.3a13.55,13.55,0,0,0,10-5.7,53,53,0,0,0,6-12.11L135,574.78a13.08,13.08,0,0,0,.1-4.2,10.66,10.66,0,0,0-.9-3,19.74,19.74,0,0,0-1.6-2.41l4.4-9.39,5.6,11.6c.26.53.53,1.1.8,1.7s.6,1.43,1,2.5,1.53,4.2,3.4,9,4.1,10.63,6.7,17.5,5.5,14.43,8.7,22.7,6.33,16.43,9.4,24.5,6,15.7,8.8,22.89,5.2,13.21,7.2,18a78.9,78.9,0,0,0,4.9,10.31,37.18,37.18,0,0,0,4.4,6.19,17.31,17.31,0,0,0,3.8,3.31,12.8,12.8,0,0,0,3.3,1.4,25.06,25.06,0,0,0,4.2.79A33.2,33.2,0,0,0,212.63,708.38Z" transform="translate(-68.63 -41.74)"/><path class="cls-2" d="M354.63,682.17c.79,0,1.2,1.07,1.2,3.21,0,.53-.07,1.63-.2,3.29s-.37,3.54-.71,5.61-.66,4.13-1,6.2a51.79,51.79,0,0,1-1.09,5.3c-.41,1.2-.77,2.16-1.1,2.89a3.49,3.49,0,0,1-1.81,1.71,11,11,0,0,1-3.59.79c-1.54.14-3.7.21-6.5.21-3.74,0-7.47,0-11.2-.1l-10.71-.2-9.59-.2q-4.5-.11-7.7-.1-6.4-.4-11.4-.5t-9.6-.11c-.4,0-1.37,0-2.9.11s-3.37.1-5.5.1-4.07.23-6.21.29-3.93.11-5.39.11c-2.27,0-3.4-.54-3.4-1.61,0-.79.6-1.19,1.79-1.19a19.06,19.06,0,0,0,6-1,5.34,5.34,0,0,0,4.31-3.6,35.75,35.75,0,0,0,1.69-7.6,162.75,162.75,0,0,0,.9-18q.1-11.61.1-26.61V583.48q0-4.71-.1-7.5c-.06-1.87-.16-3.6-.29-5.2a18.69,18.69,0,0,0-2-7.9q-1.61-2.7-6.8-3.71a13.75,13.75,0,0,0-3.41-.5c-1.46-.06-2.66-.09-3.59-.09s-1.6-.41-1.6-1.2c0-1.07,1.06-1.6,3.19-1.6s4.71,0,7.31.1,5,.13,7.29.2,4.21.13,5.81.2l2.8.1,3-.1q2.6-.1,6.1-.2l7.1-.2q3.6-.11,6-.1c2.13,0,3.19.53,3.19,1.6,0,.79-.53,1.2-1.6,1.2-.66,0-1.63,0-2.9.09a28.59,28.59,0,0,0-3.89.5q-4.41.81-6,3.5c-1.07,1.81-1.74,4.5-2,8.11q-.21,2.4-.3,4.89t-.1,6.5v26.41h4.6a1.72,1.72,0,0,1,1.19.59,6.62,6.62,0,0,1,.9,1.21,4.52,4.52,0,0,1,.5,2.4v41.6a22.22,22.22,0,0,0-1.79-3,15.09,15.09,0,0,0-2.3-2.21,7.85,7.85,0,0,0-3.1-1.39v4q0,11.19.19,19.39t.71,13.91a50.91,50.91,0,0,0,1.39,8.9,10.63,10.63,0,0,0,2.31,4.6q2.39,2.59,7.5,3.7t17.09,1.1c2.67,0,5.5,0,8.5-.1a73.83,73.83,0,0,0,8.71-.7,35.79,35.79,0,0,0,7.6-1.91,12,12,0,0,0,5.19-3.5,18.89,18.89,0,0,0,3.6-5.89,28,28,0,0,0,1.81-6.3C353.09,683.11,353.69,682.17,354.63,682.17Z" transform="translate(-68.63 -41.74)"/><path class="cls-2" d="M468.22,567.38a43.08,43.08,0,0,1,6.9,9.79,30,30,0,0,1,3.5,14.61,65.1,65.1,0,0,1-2.9,20,43.05,43.05,0,0,1-8.5,15.39,37.61,37.61,0,0,1-13.9,9.91,48.85,48.85,0,0,1-19.1,3.5h-1.4a6.74,6.74,0,0,1-1.6-.2c-4.13,0-6.87-1.1-8.2-3.3a13.16,13.16,0,0,1-2-6.91V579.58h.6a1.68,1.68,0,0,1,1.4,1,1.63,1.63,0,0,1,.2.7,1.67,1.67,0,0,0,.2.7,2.28,2.28,0,0,0,.2,1v3.6a11.16,11.16,0,0,1,3.2.7,5.72,5.72,0,0,1,2.1,1.5,4.34,4.34,0,0,1,.9,3v30.39a9.75,9.75,0,0,1-.8,4,7.87,7.87,0,0,1-1.8,2.81,4.36,4.36,0,0,1-3.6,1v.19a7.4,7.4,0,0,0,1.9,5c1.27,1.47,3.83,2.07,7.7,1.81q15-.81,22.2-9.9t7.2-23.3q0-2.61-.3-6.3a46.23,46.23,0,0,0-1.4-7.9,43.32,43.32,0,0,0-3.4-8.7,35,35,0,0,0-6.5-8.71,30.25,30.25,0,0,0-8.2-6.29,37.23,37.23,0,0,0-8-3,30.14,30.14,0,0,0-6.9-.9H423a40.35,40.35,0,0,0-5,.3,14.89,14.89,0,0,0-3.8.89c-1.07.41-1.6,1.67-1.6,3.81v84.19q0,14.8.1,26.41a167.89,167.89,0,0,0,.9,18,21.18,21.18,0,0,0,1.9,7.59c1,2,3,3.21,6.1,3.61,1.47.26,3.13.5,5,.7s3.27.3,4.2.3,1.6.39,1.6,1.2c0,1.06-1.07,1.6-3.2,1.6-2.8,0-5.63,0-8.5-.1l-7.9-.2-6-.2c-1.6-.07-2.53-.1-2.8-.1l-2.5.1-5.3.2-6.3.2c-2.2.06-4,.1-5.5.1-2.27,0-3.4-.54-3.4-1.6,0-.81.53-1.2,1.6-1.2a19.68,19.68,0,0,0,6.2-1,5.34,5.34,0,0,0,4.3-3.61,36.21,36.21,0,0,0,1.7-7.59,167.89,167.89,0,0,0,.9-18q.11-11.61.1-26.41V583.58q0-4.61-.1-7.41t-.3-5.19a18.58,18.58,0,0,0-2-7.9c-1.07-1.8-3.33-3.1-6.8-3.91a13.58,13.58,0,0,0-3.4-.5q-2.21-.09-3.6-.09c-1.07,0-1.6-.41-1.6-1.2,0-1.07,1.07-1.6,3.2-1.6s4.7,0,7.3.1,5,.13,7.2.2,4.1.13,5.7.2,2.6.1,3,.1c1.2,0,2.77,0,4.7-.1s4.07-.14,6.4-.2l7.3-.2q3.8-.11,7.4-.1a81.42,81.42,0,0,1,16.3,1.39,58.8,58.8,0,0,1,11.1,3.31,33.3,33.3,0,0,1,6.9,3.8A36.88,36.88,0,0,1,468.22,567.38Z" transform="translate(-68.63 -41.74)"/><path class="cls-2" d="M486.82,558.58c-1.07,0-1.6-.41-1.6-1.2,0-1.07,1.07-1.6,3.2-1.6q3.6,0,7.5.1t7.3.2c2.27.06,4.17.13,5.7.2l2.7.1,2.8-.1c1.6-.07,3.43-.14,5.5-.2l6.3-.2c2.13-.07,4-.1,5.6-.1,2.27,0,3.4.53,3.4,1.6,0,.79-.6,1.2-1.8,1.2q-1,0-2.1.09a26.47,26.47,0,0,0-2.9.5q-4.2.81-5.7,3.61a21.21,21.21,0,0,0-1.9,8.2q-.2,2.4-.3,5.19t-.1,7.41v36a1.06,1.06,0,0,0,1.2,1.2h87.2a1.06,1.06,0,0,0,1.2-1.2v-36q0-4.61-.1-7.41t-.3-5.19a18.35,18.35,0,0,0-2.1-8q-1.69-2.81-6.9-3.81a13.21,13.21,0,0,0-3.3-.5c-1.4-.06-2.57-.09-3.5-.09-1.2,0-1.8-.41-1.8-1.2,0-1.07,1.13-1.6,3.4-1.6s4.7,0,7.3.1,5,.13,7.3.2,4.2.13,5.8.2l2.8.1,2.7-.1c1.53-.07,3.33-.14,5.4-.2l6.4-.2c2.2-.07,4.1-.1,5.7-.1,2.13,0,3.2.53,3.2,1.6,0,.79-.53,1.2-1.6,1.2a37,37,0,0,0-5.2.59q-4.2.81-5.7,3.61a21.21,21.21,0,0,0-1.9,8.2q-.2,2.4-.3,5.19t-.1,7.41v68q0,14.79.1,26.4a173.87,173.87,0,0,0,.9,18.19,21.68,21.68,0,0,0,1.9,7.5q1.5,3.11,6.1,3.71c1.47.26,3.13.46,5,.6s3.33.19,4.4.19,1.6.41,1.6,1.21c0,1.2-1.13,1.79-3.4,1.79q-4.2,0-8.5-.09l-7.9-.2q-3.6-.11-6-.21l-2.8-.09-2.7.09q-2.29.11-5.4.21l-6.4.2q-3.3.09-5.7.09c-2.13,0-3.2-.59-3.2-1.79,0-.8.53-1.21,1.6-1.21a27.31,27.31,0,0,0,3.1-.19,21.32,21.32,0,0,0,3.1-.6,5.26,5.26,0,0,0,4.1-3.71,48.45,48.45,0,0,0,1.9-7.5,173.87,173.87,0,0,0,.9-18.19q.11-11.61.1-26.4V630c0-.94-.4-1.4-1.2-1.4h-87.2c-.8,0-1.2.46-1.2,1.4v21.6q0,14.79.1,26.4a173.87,173.87,0,0,0,.9,18.19,21.68,21.68,0,0,0,1.9,7.5q1.5,3.11,6.1,3.71c1.47.26,3.13.46,5,.6s3.27.19,4.2.19,1.6.41,1.6,1.21c0,1.2-1.07,1.79-3.2,1.79q-4.2,0-8.6-.09l-8-.2q-3.6-.11-6-.21l-2.8-.09-2.7.09q-2.3.11-5.4.21l-6.3.2c-2.13.06-4,.09-5.6.09-2.27,0-3.4-.59-3.4-1.79,0-.8.6-1.21,1.8-1.21a24.9,24.9,0,0,0,3-.19,21.51,21.51,0,0,0,3-.6,5.34,5.34,0,0,0,4.3-3.71,38.05,38.05,0,0,0,1.7-7.5,173.87,173.87,0,0,0,.9-18.19q.1-11.61.1-26.4v-68q0-4.61-.1-7.41t-.3-5.19a19.35,19.35,0,0,0-2-8c-1.07-1.87-3.33-3.14-6.8-3.81a13.58,13.58,0,0,0-3.4-.5Q488.22,558.58,486.82,558.58Z" transform="translate(-68.63 -41.74)"/><path class="cls-2" d="M794.82,708.38c1.33,0,2,.4,2,1.2a1.3,1.3,0,0,1-1.1,1.3,10.42,10.42,0,0,1-2.7.29h-11.1q-4.09,0-9-.09t-9.9-.3l-4.2-.3c-.93-.07-1.4-.44-1.4-1.1a1.45,1.45,0,0,1,1.2-1.4,2.37,2.37,0,0,0,1.6-1.5,4.25,4.25,0,0,0-.4-3.5l-17.6-46.81a1.93,1.93,0,0,0-1.8-1.19H706c.4-1.07.77-2.2,1.1-3.4s.63-2.34.9-3.41l10.2-29q1.2,3.62,2.2,6.61c.67,1.73,1.23,3.33,1.7,4.8s.83,2.26,1.1,2.4-.17.19-.9.19h-2.5c-1.07,0-2.33-.06-3.8-.19l-5.2,15.19H738c.8,0,1.07-.46.8-1.39l-18.2-51.4c-.93-2.67-1.87-2.67-2.8,0L701,646.78q-1.39,3.79-2.4,6.89c-.67,2.07-1.43,4.41-2.3,7s-1.77,5.24-2.7,7.91q-3.4,9.6-7.4,21.59a65.2,65.2,0,0,0-1.9,6.91,28.48,28.48,0,0,0-.7,5.9,4.35,4.35,0,0,0,2.4,4.1,10.08,10.08,0,0,0,4.8,1.3h1.8c1.33,0,2,.4,2,1.2,0,1.06-.93,1.59-2.8,1.59-1.2,0-2.53,0-4-.09l-4.4-.2-4-.21c-1.2-.06-2.07-.09-2.6-.09s-1.5,0-2.9.09-3.1.14-5.1.21l-6.5.2q-3.5.09-6.9.09-3.6,0-3.6-1.59c0-.8.53-1.2,1.6-1.2.67,0,1.57,0,2.7-.1s2.1-.17,2.9-.3a13.55,13.55,0,0,0,10-5.7,52.16,52.16,0,0,0,6-12.11l42.2-115.39a12.8,12.8,0,0,0,.1-4.2,10.66,10.66,0,0,0-.9-3,18.64,18.64,0,0,0-1.6-2.41l4.4-9.39,5.6,11.6c.27.53.53,1.1.8,1.7s.6,1.43,1,2.5,1.53,4.2,3.4,9,4.1,10.63,6.7,17.5,5.5,14.43,8.7,22.7,6.33,16.43,9.4,24.5,6,15.7,8.8,22.89,5.2,13.21,7.2,18a80.22,80.22,0,0,0,4.9,10.31,37.18,37.18,0,0,0,4.4,6.19,17.54,17.54,0,0,0,3.8,3.31,12.8,12.8,0,0,0,3.3,1.4,25.44,25.44,0,0,0,4.2.79A33.36,33.36,0,0,0,794.82,708.38Z" transform="translate(-68.63 -41.74)"/><path class="cls-2" d="M1031.62,633.78c2,0,3,.53,3,1.6,0,.66-.54,1-1.6,1a19,19,0,0,0-2,.1,23.25,23.25,0,0,0-2.8.5q-4,.79-5.5,3.4a18.83,18.83,0,0,0-1.9,7.79q-.41,4.82-.4,9.61v33c0,2.26,0,4-.1,5.2a26.41,26.41,0,0,1-.3,2.9,2.5,2.5,0,0,1-.7,1.5l-1.3,1a56.92,56.92,0,0,1-10.3,4.29,108.65,108.65,0,0,1-11.1,2.81,94.54,94.54,0,0,1-10.9,1.5c-3.54.26-6.7.4-9.5.4-3.74,0-8.2-.21-13.4-.6a98.89,98.89,0,0,1-16.5-2.8,100,100,0,0,1-17.7-6.4,72.29,72.29,0,0,1-17.2-11.41,51.52,51.52,0,0,1-8.8-9.59,71.71,71.71,0,0,1-7.4-13,87.87,87.87,0,0,1-5.2-15.7,76.73,76.73,0,0,1-2-17.71,84.53,84.53,0,0,1,2.7-21.89,79.6,79.6,0,0,1,7.2-18.2,69.13,69.13,0,0,1,10.4-14.3,66.07,66.07,0,0,1,12.5-10.4,64.76,64.76,0,0,1,13.5-6.6,94.87,94.87,0,0,1,13.7-3.7,103.47,103.47,0,0,1,13.1-1.7q6.3-.4,12.1-.4c3.06,0,6.2.13,9.4.4s6.16.6,8.9,1,5.16.79,7.3,1.2,3.66.66,4.6.8c2,.4,4.53.76,7.6,1.1s5.86.56,8.4.69c1.46.14,2.2.74,2.2,1.81,0,.66-.07,1.6-.2,2.8s-.3,2.83-.5,4.89-.37,4.74-.5,8-.2,7.37-.2,12.31a12.12,12.12,0,0,1-.3,3.3,1.24,1.24,0,0,1-1.3.89c-.67,0-1.14-1-1.4-3a41.24,41.24,0,0,0-1.1-5.79,26.24,26.24,0,0,0-3.1-7.21,21.67,21.67,0,0,0-5.7-5.59,45.09,45.09,0,0,0-9.7-5.1,76,76,0,0,0-13.5-3.81,90.93,90.93,0,0,0-17.3-1.5q-4.61,0-9.7.41a63.8,63.8,0,0,0-10.4,1.7,59.18,59.18,0,0,0-10.9,3.89,57.44,57.44,0,0,0-11.2,7q-8.61,6.81-14,19.71t-5.4,30.29a76.75,76.75,0,0,0,2.3,19.31,95.46,95.46,0,0,0,5.5,15.9,68.36,68.36,0,0,0,13,19.4q11.79,11.4,24.8,16.2a77,77,0,0,0,26.8,4.8c1.73,0,3.63-.07,5.7-.2s4.13-.37,6.2-.7a48.62,48.62,0,0,0,5.8-1.3,30.48,30.48,0,0,0,4.7-1.8,7.43,7.43,0,0,0,4-7v-33.4c0-4-.1-7.21-.3-9.6a18.79,18.79,0,0,0-1.2-5.7,6.68,6.68,0,0,0-2.7-3.2A18.06,18.06,0,0,0,995,637a10,10,0,0,0-3.1-.5c-1.4-.07-2.57-.1-3.5-.1s-1.6-.34-1.6-1c0-1.07,1.06-1.6,3.2-1.6s4.46,0,7,.1,4.86.13,7,.2,4,.13,5.5.2l2.7.1,2.6-.1c1.46-.07,3.2-.14,5.2-.2l6.2-.2C1028.35,633.81,1030.15,633.78,1031.62,633.78ZM924,631.58a29.88,29.88,0,0,0-3.4-6.5,18,18,0,0,0-2.6-2.91,2.92,2.92,0,0,0-2.2-.59,16.79,16.79,0,0,0-.7,4.7,47.23,47.23,0,0,0,.2,6.1c.2,2.13.46,4.26.8,6.4a49.46,49.46,0,0,0,1.1,5.39,38.84,38.84,0,0,0,4.7,11q2.7,4,3.7,5.21v2a24.55,24.55,0,0,1-6.2-6.6,45.55,45.55,0,0,1-4.6-9.7,53.39,53.39,0,0,1-2.6-15.7,64.53,64.53,0,0,1,.9-15.21,58.47,58.47,0,0,1,3.3-11.59,23.19,23.19,0,0,1,4.2-7.1c1.46-1.54,2.6-2.1,3.4-1.7Z" transform="translate(-68.63 -41.74)"/><path class="cls-2" d="M1183,708.38c1.33,0,2,.4,2,1.2a1.3,1.3,0,0,1-1.1,1.3,10.52,10.52,0,0,1-2.7.29h-11.1q-4.11,0-9-.09t-9.9-.3l-4.2-.3c-.94-.07-1.4-.44-1.4-1.1a1.45,1.45,0,0,1,1.2-1.4,2.39,2.39,0,0,0,1.6-1.5,4.29,4.29,0,0,0-.4-3.5l-17.6-46.81a1.93,1.93,0,0,0-1.8-1.19h-34.4c.4-1.07.76-2.2,1.1-3.4s.63-2.34.9-3.41l10.2-29q1.2,3.62,2.2,6.61,1,2.6,1.7,4.8c.46,1.46.83,2.26,1.1,2.4s-.17.19-.9.19H1108c-1.07,0-2.34-.06-3.8-.19l-5.2,15.19h27.2c.8,0,1.06-.46.8-1.39l-18.2-51.4q-1.41-4-2.8,0l-16.8,51.4q-1.41,3.79-2.4,6.89c-.67,2.07-1.44,4.41-2.3,7s-1.77,5.24-2.7,7.91q-3.4,9.6-7.4,21.59a62.89,62.89,0,0,0-1.9,6.91,28.48,28.48,0,0,0-.7,5.9,4.35,4.35,0,0,0,2.4,4.1,10.08,10.08,0,0,0,4.8,1.3h1.8c1.33,0,2,.4,2,1.2,0,1.06-.94,1.59-2.8,1.59-1.2,0-2.54,0-4-.09l-4.4-.2-4-.21c-1.2-.06-2.07-.09-2.6-.09s-1.5,0-2.9.09-3.1.14-5.1.21l-6.5.2q-3.51.09-6.9.09-3.6,0-3.6-1.59c0-.8.53-1.2,1.6-1.2.66,0,1.56,0,2.7-.1s2.1-.17,2.9-.3a13.55,13.55,0,0,0,10-5.7,53,53,0,0,0,6-12.11l42.2-115.39a13.08,13.08,0,0,0,.1-4.2,10.66,10.66,0,0,0-.9-3,19.74,19.74,0,0,0-1.6-2.41l4.4-9.39,5.6,11.6c.26.53.53,1.1.8,1.7s.6,1.43,1,2.5,1.53,4.2,3.4,9,4.1,10.63,6.7,17.5,5.5,14.43,8.7,22.7,6.33,16.43,9.4,24.5,6,15.7,8.8,22.89,5.2,13.21,7.2,18a78.9,78.9,0,0,0,4.9,10.31,37.18,37.18,0,0,0,4.4,6.19,17.31,17.31,0,0,0,3.8,3.31,12.8,12.8,0,0,0,3.3,1.4,25.06,25.06,0,0,0,4.2.79A33.2,33.2,0,0,0,1183,708.38Z" transform="translate(-68.63 -41.74)"/><path class="cls-2" d="M1329,591.78l2,15.39L1287.41,700q-3.2,6.6-4.2,8.6c-.67,1.33-1.46,2-2.4,2s-1.6-.64-2.4-1.91-2.13-3.69-4-7.29q-1.4-2.4-3.5-6.71c-1.4-2.86-3-6-4.7-9.39s-3.46-6.84-5.2-10.3-3.33-6.67-4.8-9.6-2.7-5.37-3.7-7.3-1.56-3.1-1.7-3.5-1.06-2.24-2.4-5.1-2.93-6.27-4.8-10.2l-6-12.7q-3.19-6.81-6-12.91c-1.86-4.06-3.47-7.59-4.8-10.59s-2.2-5-2.6-5.91h-.8l-8,93.41c-.13,1.59-.2,3.3-.2,5.09V701a6.45,6.45,0,0,0,5.2,6.19,36.85,36.85,0,0,0,4.6.81c1.33.13,2.33.19,3,.19,1.2,0,1.8.34,1.8,1,0,1.21-1.27,1.81-3.8,1.81-1.87,0-3.8,0-5.8-.1l-5.7-.21c-1.8-.06-3.33-.13-4.6-.19s-2.1-.1-2.5-.1-1.27,0-2.6.1-2.83.13-4.5.19l-5.2.21c-1.8.06-3.36.1-4.7.1-2.27,0-3.4-.6-3.4-1.81,0-.66.67-1,2-1,.8,0,1.63,0,2.5-.09s2-.24,3.5-.5a6.73,6.73,0,0,0,3.9-2,12.06,12.06,0,0,0,2.4-3.91,19.67,19.67,0,0,0,1.2-5.09c.2-1.87.44-3.8.7-5.8l14.4-131.4c.27-2.4,1-3.6,2.2-3.6s2.07,1,3,3l61.8,126.8,44-94.2Zm57.8,116.39c1.07,0,1.6.34,1.6,1s-.4,1.14-1.2,1.41a9.81,9.81,0,0,1-3,.4c-1.2,0-3.26,0-6.2-.1s-6.13-.17-9.6-.3l-10.2-.41q-5-.2-7.8-.39a25.2,25.2,0,0,1-4.5-.8c-.73-.27-1.1-.67-1.1-1.2,0-.8.47-1.27,1.4-1.4.54-.14.87-.9,1-2.3a21.09,21.09,0,0,0-.2-4.91l-9.6-104a13.22,13.22,0,0,0-.4-4.59,10.48,10.48,0,0,0-1.6-3.6,7.91,7.91,0,0,0-3.4-2.81V584a16.27,16.27,0,0,0-2.3.3,23.47,23.47,0,0,0-3.7,1,18.23,18.23,0,0,0-4,2,9.49,9.49,0,0,0-3.2,3.5q1.61-4.2,3.4-7.8a57,57,0,0,1,3.4-5.6,7.44,7.44,0,0,1,4-3.21q6.8-1.78,11.2-8.79l3-6.4c.94-2.14,1.94-3.2,3-3.2s2,1.8,2.4,5.39L1362.81,685a55.29,55.29,0,0,0,.8,6,42.53,42.53,0,0,0,1.7,6.3,19.27,19.27,0,0,0,3.1,5.6,10.61,10.61,0,0,0,5.2,3.5,33.08,33.08,0,0,0,8,1.6C1384,708.11,1385.75,708.17,1386.81,708.17Z" transform="translate(-68.63 -41.74)"/><path class="cls-2" d="M1500.61,683a1.11,1.11,0,0,1,1.2,1,11.42,11.42,0,0,1,.2,2.19c0,.41-.1,1.47-.3,3.21s-.43,3.63-.7,5.7-.57,4.13-.9,6.2-.63,3.63-.9,4.7c-.67,2.66-1.67,4.23-3,4.69s-4,.71-8,.71-8.3,0-13.3-.1l-14.7-.2-13.3-.2q-6.11-.11-9.1-.1c-4.13-.27-7.47-.44-10-.5s-4.6-.11-6.2-.11H1419c-1.47,0-3.33.07-5.6.21-2,0-4.1.06-6.3.2s-4,.2-5.5.2c-2.27,0-3.4-.54-3.4-1.61s.6-1.39,1.8-1.39a25,25,0,0,0,3-.2,21.51,21.51,0,0,0,3-.6,5.33,5.33,0,0,0,4.3-3.6,36.32,36.32,0,0,0,1.7-7.6,167.89,167.89,0,0,0,.9-18q.1-11.61.1-26.61V583.28q0-4.71-.1-7.5c-.07-1.87-.17-3.61-.3-5.2a18.68,18.68,0,0,0-2-7.91c-1.07-1.79-3.33-3-6.8-3.69a12.71,12.71,0,0,0-3.4-.5c-1.47-.07-2.67-.1-3.6-.1s-1.6-.4-1.6-1.21c0-1.19,1.07-1.79,3.2-1.79h7.5c2.6,0,5,.06,7.3.2l8.4.4h44.8c4.53,0,8.47,0,11.8-.1s5.4-.1,6.2-.1a40.48,40.48,0,0,0,8.8-1,4.5,4.5,0,0,0,1.6-.61,2.52,2.52,0,0,1,1.4-.39c.53,0,.8.6.8,1.8a12.87,12.87,0,0,1-.6,3.3,38.66,38.66,0,0,0-1,6.5c0,.53,0,1.4-.1,2.6s-.17,2.5-.3,3.9-.23,2.76-.3,4.1a17.62,17.62,0,0,1-.3,2.8,8.65,8.65,0,0,1-.5,1.7,1.1,1.1,0,0,1-1.1.69c-1.07,0-1.6-.93-1.6-2.79,0-.67-.07-1.74-.2-3.21a14.83,14.83,0,0,0-1-4.19,16,16,0,0,0-1.3-2.2,6.81,6.81,0,0,0-2.3-1.9,18.31,18.31,0,0,0-4.2-1.6,58.55,58.55,0,0,0-6.8-1.3c-.53,0-1.93,0-4.2-.1s-5-.14-8.1-.21l-10-.19q-5.29-.11-9.9-.1h-11.6c-.8,0-1.2.73-1.2,2.2v56.59c0,1.34.4,2,1.2,2H1455q5.81,0,10.9-.09t9-.1a40.36,40.36,0,0,0,5.1-.2q3.6-.4,5.9-.8a6.19,6.19,0,0,0,3.7-2c1.47-1.74,2.47-2.6,3-2.6.8,0,1.2.53,1.2,1.6a16.65,16.65,0,0,1-.7,3.6,45.76,45.76,0,0,0-1.1,7.8c-.13,1.06-.23,2.29-.3,3.7s-.13,2.73-.2,4-.13,2.4-.2,3.4-.1,1.69-.1,2.1a18.8,18.8,0,0,1-.2,2.59q-.19,1.41-1.2,1.41c-.93,0-1.4-.67-1.4-2,0-1.07,0-2.1-.1-3.1a19.64,19.64,0,0,0-.7-3.7,9.84,9.84,0,0,0-2.7-4.3c-1.4-1.4-4.1-2.31-8.1-2.7-.93-.14-2.6-.27-5-.4s-5.17-.24-8.3-.3-6.43-.14-9.9-.2l-9.8-.21q-4.61-.09-7.9-.09h-4.1c-.93,0-1.4.53-1.4,1.59v53.21a16.85,16.85,0,0,0,2.3,8.5,13.61,13.61,0,0,0,6.1,5.1,34.3,34.3,0,0,0,9.8,2.5,114.77,114.77,0,0,0,13.4.69h5.8q3.8,0,8-.19t8-.7a25.85,25.85,0,0,0,5.8-1.3,13.61,13.61,0,0,0,6.1-5.1q2.1-3.32,3.1-9.71C1499.21,684,1499.81,683,1500.61,683Zm-60,1.4c0,.13.07.93.2,2.4a6.88,6.88,0,0,0,2.2,4.2,7.16,7.16,0,0,0,3.2,2c1.07.26,2.53.53,4.4.8a1.69,1.69,0,0,1,.8.2,1.76,1.76,0,0,1,1.2,1.19,1.4,1.4,0,0,0,.1.61.81.81,0,0,1,.1.39.61.61,0,0,0,.2.41q-8.4,0-12.2-3.8-2.8-2.81-3-5.5c-.13-1.8-.2-2.77-.2-2.9v-43a3.3,3.3,0,0,1,.4-1q.2-.6,1.2-.6h21.4v.2l-2.6,2.4-6,5.4h-5.6V653l-5.8,4.8Z" transform="translate(-68.63 -41.74)"/><path class="cls-2" d="M1566,623.17a150.37,150.37,0,0,1,14.5,12.91,58.54,58.54,0,0,1,8.9,11.5,39.59,39.59,0,0,1,4.4,11A52.37,52.37,0,0,1,1595,670a45.71,45.71,0,0,1-3.2,16,40.36,40.36,0,0,1-5.1,9.1,35.05,35.05,0,0,1-8.5,8.09,42.63,42.63,0,0,1-14.2,6.31,67.68,67.68,0,0,1-16,1.9,76.63,76.63,0,0,1-13.7-1.21,49.06,49.06,0,0,1-12.9-4.19c-1.47-.54-2.33-1.24-2.6-2.1a22,22,0,0,1-.4-5.3q0-7.61.4-13.2c.27-3.74.47-6.4.6-8,.13-2.14.67-3.21,1.6-3.21s1.4.74,1.4,2.21c0,.93,0,2,.1,3.29a32.75,32.75,0,0,0,.5,4.11,25.14,25.14,0,0,0,4,9.5,22.66,22.66,0,0,0,6.8,6.3,30.51,30.51,0,0,0,8.8,3.5,43.94,43.94,0,0,0,9.8,1.09,30.79,30.79,0,0,0,12.6-2.39,27.44,27.44,0,0,0,8.9-6.11,24.93,24.93,0,0,0,5.3-8.5,27.08,27.08,0,0,0,1.8-9.59,30.41,30.41,0,0,0-1.4-9.6,7.16,7.16,0,0,0,2-.2,4.18,4.18,0,0,0,2.8-4.11,14.29,14.29,0,0,0-2.2-6.79,53.64,53.64,0,0,0-6.3-8.6,105,105,0,0,0-9.5-9.5q-3.4-3-7.1-6.11c-2.47-2.06-4.9-4-7.3-5.79a52.51,52.51,0,0,0-6.8-4.4,12.22,12.22,0,0,0-5.6-1.7c-1.87,0-2.93.6-3.2,1.8q-7.8-8.8-10.5-16.3a44.34,44.34,0,0,1-2.7-15.11,35.92,35.92,0,0,1,2.9-14.59,32.66,32.66,0,0,1,8.3-11.41,37.69,37.69,0,0,1,13-7.39,52.12,52.12,0,0,1,17-2.61,95,95,0,0,1,10.3.5,59.51,59.51,0,0,1,8.3,1.5c1.87.41,3.3.67,4.3.81a21.07,21.07,0,0,0,2.7.19c1.33,0,2,.47,2,1.41q0,.79-.4,5.9t-.4,15.3c0,3.06-.47,4.6-1.4,4.6-.67,0-1.07-.24-1.2-.71a17.39,17.39,0,0,1-.4-1.89q-.2-1.8-.9-5.11a15.73,15.73,0,0,0-1.7-4.89,19.61,19.61,0,0,0-1.8-2.61,16.46,16.46,0,0,0-4.3-3.59,29.21,29.21,0,0,0-7.5-3.1,42.44,42.44,0,0,0-11.4-1.31q-10.39,0-17.4,6.11t-7,17.1a27.78,27.78,0,0,0,1.1,7.9,25.77,25.77,0,0,0,3.8,7.5,53.13,53.13,0,0,0,7.4,8.1q4.7,4.29,11.9,9.9Z" transform="translate(-68.63 -41.74)"/></svg>