<svg xmlns="http://www.w3.org/2000/svg" viewBox="0 0 1850 107"><defs><style>.cls-1,.cls-2{fill:#ffc444;}.cls-2{fill-rule:evenodd;}</style></defs><title>Asset 3eventsdivider</title><g id="Layer_2" data-name="Layer 2"><g id="Layer_1-2" data-name="Layer 1"><path class="cls-1" d="M0,107l810.57-.5L896,0H0Z"/><path class="cls-2" d="M865.61,107H841.5L927.9.5H950Z"/><path class="cls-2" d="M919.61,107H895.5L981.9.5H1004Z"/><path class="cls-2" d="M970.61,107H946.5L1032.9.5H1055Z"/><path class="cls-2" d="M1024.61,107H1000.5L1086.9.5H1109Z"/><path class="cls-2" d="M1078.61,107H1054.5L1140.9.5H1163Z"/><path class="cls-2" d="M1129.61,107H1105.5L1191.9.5H1214Z"/><path class="cls-2" d="M1183.61,107H1159.5L1245.9.5H1268Z"/><path class="cls-2" d="M1237.61,107H1213.5L1299.9.5H1322Z"/><path class="cls-2" d="M1288.61,107H1264.5L1350.9.5H1373Z"/><path class="cls-2" d="M1342.61,107H1318.5L1404.9.5H1427Z"/><path class="cls-2" d="M1396.61,107H1372.5L1458.9.5H1481Z"/><path class="cls-2" d="M1447.61,107H1423.5L1509.9.5H1532Z"/><path class="cls-2" d="M1501.61,107H1477.5L1563.9.5H1586Z"/><path class="cls-2" d="M1555.61,107H1531.5L1617.9.5H1640Z"/><path class="cls-2" d="M1606.61,107H1582.5L1668.9.5H1691Z"/><path class="cls-2" d="M1660.61,107H1636.5L1722.9.5H1745Z"/><path class="cls-2" d="M1714.61,107H1690.5L1776.9.5H1799Z"/><path class="cls-2" d="M1765.61,107H1741.5L1827.9.5H1850Z"/></g></g></svg>