<svg xmlns="http://www.w3.org/2000/svg" viewBox="0 0 1850 107"><defs><style>.cls-1,.cls-2{fill:#ffc444;}.cls-2{fill-rule:evenodd;}</style></defs><title>Asset 2eventsdivider</title><g id="Layer_2" data-name="Layer 2"><g id="Layer_1-2" data-name="Layer 1"><path class="cls-1" d="M1850,107l-810.57-.5L954,0h896Z"/><path class="cls-2" d="M984.39,107h24.11L922.1.5H900Z"/><path class="cls-2" d="M930.39,107H954.5L868.1.5H846Z"/><path class="cls-2" d="M879.39,107H903.5L817.1.5H795Z"/><path class="cls-2" d="M825.39,107H849.5L763.1.5H741Z"/><path class="cls-2" d="M771.39,107H795.5L709.1.5H687Z"/><path class="cls-2" d="M720.39,107H744.5L658.1.5H636Z"/><path class="cls-2" d="M666.39,107H690.5L604.1.5H582Z"/><path class="cls-2" d="M612.39,107H636.5L550.1.5H528Z"/><path class="cls-2" d="M561.39,107H585.5L499.1.5H477Z"/><path class="cls-2" d="M507.39,107H531.5L445.1.5H423Z"/><path class="cls-2" d="M453.39,107H477.5L391.1.5H369Z"/><path class="cls-2" d="M402.39,107H426.5L340.1.5H318Z"/><path class="cls-2" d="M348.39,107H372.5L286.1.5H264Z"/><path class="cls-2" d="M294.39,107H318.5L232.1.5H210Z"/><path class="cls-2" d="M243.39,107H267.5L181.1.5H159Z"/><path class="cls-2" d="M189.39,107H213.5L127.1.5H105Z"/><path class="cls-2" d="M135.39,107H159.5L73.1.5H51Z"/><path class="cls-2" d="M84.39,107H108.5L22.1.5H0Z"/></g></g></svg>